Coordinates
version=1
nRows=11
nColumns=40
inDegrees=yes

Units are S.I. units (second, meters, Newtons, ...)
If the header above contains a line with 'inDegrees', this indicates whether rotational values are in degrees (yes) or radians (no).

endheader
time	pelvis_tilt	pelvis_list	pelvis_rotation	pelvis_tx	pelvis_ty	pelvis_tz	hip_flexion_r	hip_adduction_r	hip_rotation_r	knee_angle_r	knee_angle_r_beta	ankle_angle_r	subtalar_angle_r	mtp_angle_r	hip_flexion_l	hip_adduction_l	hip_rotation_l	knee_angle_l	knee_angle_l_beta	ankle_angle_l	subtalar_angle_l	mtp_angle_l	lumbar_extension	lumbar_bending	lumbar_rotation	arm_flex_r	arm_add_r	arm_rot_r	elbow_flex_r	pro_sup_r	wrist_flex_r	wrist_dev_r	arm_flex_l	arm_add_l	arm_rot_l	elbow_flex_l	pro_sup_l	wrist_flex_l	wrist_dev_l
      2.80000000	    -11.07512236	     -0.18593757	     -5.66944917	     -0.26168535	      1.03741649	     -1.03894948	     11.91159964	     -8.71524648	     -6.62336715	     92.23539798	      1.60981138	    -30.99608073	      0.00000000	      0.00000000	     19.09791837	      2.17911259	     -8.55228972	     18.00329332	      0.31421674	     -2.11118836	      0.00000000	      0.00000000	     -4.07001838	     -2.69524316	      8.10540364	     50.57858708	    -31.06305621	     21.65877854	     74.65649061	     85.79285347	      0.00000000	      0.00000000	     65.98726624	    -29.90564448	     38.26133160	     50.63633925	     82.78995746	      0.00000000	      0.00000000
      2.80500000	    -11.13259862	     -0.11629730	     -5.66366946	     -0.26212182	      1.03704045	     -1.03896798	     11.96737490	     -8.72880247	     -6.57688477	     92.18405707	      1.60891531	    -30.97208072	      0.00000000	      0.00000000	     19.29661289	      2.23302271	     -8.54326792	     18.21247929	      0.31786773	     -2.04181592	      0.00000000	      0.00000000	     -4.07676720	     -2.75717227	      8.15126856	     50.81045167	    -31.07694814	     21.64609158	     74.46658730	     86.04266489	      0.00000000	      0.00000000	     66.21206045	    -29.80369931	     38.52656527	     50.55884723	     81.81500457	      0.00000000	      0.00000000
      2.81000000	    -11.17979444	     -0.13491387	     -5.60464401	     -0.26249084	      1.03668869	     -1.03904048	     11.98571289	     -8.65631807	     -6.61377124	     92.11320995	      1.60767880	    -30.99011595	      0.00000000	      0.00000000	     19.48662171	      2.21032780	     -8.41793942	     18.44883300	      0.32199288	     -1.93029149	      0.00000000	      0.00000000	     -4.10564472	     -2.68949520	      8.01378747	     51.25583766	    -30.94441081	     21.94684975	     74.06777205	     85.72816404	      0.00000000	      0.00000000	     66.23780087	    -29.88215827	     38.26560126	     50.63344972	     83.19834221	      0.00000000	      0.00000000
      2.81500000	    -11.26999276	     -0.04541331	     -5.59671649	     -0.26277701	      1.03618994	     -1.03910369	     12.06618751	     -8.71655204	     -6.59845229	     92.06299801	      1.60680243	    -30.96966381	      0.00000000	      0.00000000	     19.73070491	      2.27312453	     -8.54048076	     18.70248279	      0.32641990	     -1.85792990	      0.00000000	      0.00000000	     -4.06226097	     -2.75010025	      8.00446094	     51.53194445	    -30.90279757	     22.02478711	     73.84680555	     85.75293685	      0.00000000	      0.00000000	     66.35812870	    -29.87240147	     38.32010246	     50.64188030	     83.04545911	      0.00000000	      0.00000000
      2.82000000	    -11.36743408	     -0.04025067	     -5.52823382	     -0.26339755	      1.03570174	     -1.03906943	     12.15725644	     -8.65190790	     -6.62948750	     92.02769407	      1.60618626	    -30.94173744	      0.00000000	      0.00000000	     20.00924193	      2.26724916	     -8.36696635	     18.97303979	      0.33114201	     -1.75697956	      0.00000000	      0.00000000	     -4.06059769	     -2.72868719	      7.87695177	     51.94061913	    -30.78503984	     22.19885835	     73.49596759	     85.98745215	      0.00000000	      0.00000000	     66.55987563	    -29.96612699	     38.62546007	     50.67634574	     81.75955062	      0.00000000	      0.00000000
      2.82500000	    -11.44106148	      0.01223589	     -5.51630678	     -0.26384375	      1.03521573	     -1.03902020	     12.22737506	     -8.64194798	     -6.59323161	     91.96864015	      1.60515558	    -30.96210708	      0.00000000	      0.00000000	     20.24955394	      2.28902393	     -8.36171217	     19.24576168	      0.33590191	     -1.62926512	      0.00000000	      0.00000000	     -4.06042959	     -2.76966279	      7.89193002	     52.20392676	    -30.80298394	     22.32338482	     73.31804613	     85.67863658	      0.00000000	      0.00000000	     66.73404535	    -29.88205219	     38.48772553	     50.56896014	     83.25909893	      0.00000000	      0.00000000
      2.83000000	    -11.49374642	      0.02166722	     -5.47360307	     -0.26426813	      1.03482492	     -1.03903751	     12.25650589	     -8.58977866	     -6.59934878	     91.91634403	      1.60424284	    -30.94001803	      0.00000000	      0.00000000	     20.45074253	      2.27849530	     -8.39415002	     19.49777442	      0.34030036	     -1.55452611	      0.00000000	      0.00000000	     -4.09487722	     -2.76983102	      7.93130530	     52.45693511	    -30.85358833	     22.34304253	     73.12671713	     85.68135334	      0.00000000	      0.00000000	     66.95125487	    -29.75031146	     38.54630832	     50.48054443	     83.34519349	      0.00000000	      0.00000000
      2.83500000	    -11.55475093	      0.06426574	     -5.44506511	     -0.26464959	      1.03435747	     -1.03907371	     12.30544392	     -8.58356092	     -6.58473960	     91.86412195	      1.60333139	    -31.01718246	      0.00000000	      0.00000000	     20.67525755	      2.29617259	     -8.40131197	     19.77176188	      0.34508234	     -1.41198343	      0.00000000	      0.00000000	     -4.11011460	     -2.78226478	      7.90303921	     52.77324433	    -30.84762172	     22.51714984	     72.91564688	     85.76793652	      0.00000000	      0.00000000	     67.10670421	    -29.75099819	     38.63954559	     50.47018157	     83.21560938	      0.00000000	      0.00000000
      2.84000000	    -11.59189202	      0.16276424	     -5.46618980	     -0.26508401	      1.03391754	     -1.03908069	     12.35439437	     -8.63298284	     -6.50878750	     91.83171561	      1.60276580	    -31.06970434	      0.00000000	      0.00000000	     20.85175054	      2.36356468	     -8.54796943	     19.97854092	      0.34869132	     -1.38178373	      0.00000000	      0.00000000	     -4.14635010	     -2.88182772	      7.97075362	     53.03372969	    -30.86238351	     22.53163825	     72.69530894	     85.84340228	      0.00000000	      0.00000000	     67.36334985	    -29.67261975	     38.93078865	     50.37619421	     82.65508022	      0.00000000	      0.00000000
      2.84500000	    -11.65454719	      0.19935591	     -5.38020388	     -0.26573920	      1.03339630	     -1.03916530	     12.41165791	     -8.63381196	     -6.57789084	     91.81154426	      1.60241374	    -31.06869488	      0.00000000	      0.00000000	     21.12808343	      2.39351212	     -8.45102551	     20.32025276	      0.35465532	     -1.20830131	      0.00000000	      0.00000000	     -4.19906862	     -2.89598607	      7.88398233	     53.40813849	    -30.88644194	     22.71504620	     72.49400832	     86.05643215	      0.00000000	      0.00000000	     67.67588466	    -29.70957463	     39.46695213	     50.35927785	     80.99140350	      0.00000000	      0.00000000
      2.85000000	    -11.72532858	      0.20025882	     -5.34148461	     -0.26630329	      1.03289471	     -1.03918209	     12.48388872	     -8.57453637	     -6.57870093	     91.76923728	      1.60167534	    -31.15355144	      0.00000000	      0.00000000	     21.37050747	      2.36292314	     -8.50077372	     20.58845309	      0.35933629	     -1.14924132	      0.00000000	      0.00000000	     -4.22265400	     -2.87757688	      7.87759634	     53.70509158	    -30.86130405	     22.81607434	     72.26892703	     85.66787063	      0.00000000	      0.00000000	     67.85723899	    -29.63813737	     39.26404263	     50.23040117	     83.30064790	      0.00000000	      0.00000000
